<svg xmlns="http://www.w3.org/2000/svg" xmlns:xlink="http://www.w3.org/1999/xlink" width="500" zoomAndPan="magnify" viewBox="0 0 375 374.999991" height="500" preserveAspectRatio="xMidYMid meet" version="1.0"><defs><clipPath id="e3e5c9de59"><path d="M 37.5 37.5 L 337.5 37.5 L 337.5 337.5 L 37.5 337.5 Z M 37.5 37.5 " clip-rule="nonzero"/></clipPath></defs><rect x="-37.5" width="450" fill="#ffffff" y="-37.499999" height="449.999989" fill-opacity="1"/><rect x="-37.5" width="450" fill="#ffffff" y="-37.499999" height="449.999989" fill-opacity="1"/><g clip-path="url(#e3e5c9de59)"><path fill="#ff751f" d="M 187.523438 37.5 C 189.980469 37.5 192.433594 37.558594 194.882812 37.679688 C 197.335938 37.800781 199.785156 37.980469 202.226562 38.222656 C 204.671875 38.464844 207.109375 38.761719 209.535156 39.125 C 211.964844 39.484375 214.382812 39.902344 216.792969 40.382812 C 219.199219 40.863281 221.59375 41.398438 223.976562 41.996094 C 226.359375 42.59375 228.722656 43.246094 231.074219 43.960938 C 233.421875 44.671875 235.753906 45.441406 238.066406 46.269531 C 240.375 47.097656 242.667969 47.980469 244.933594 48.917969 C 247.203125 49.859375 249.445312 50.855469 251.667969 51.902344 C 253.886719 52.953125 256.078125 54.058594 258.242188 55.214844 C 260.410156 56.371094 262.542969 57.582031 264.652344 58.84375 C 266.757812 60.105469 268.832031 61.417969 270.871094 62.785156 C 272.914062 64.148438 274.921875 65.5625 276.890625 67.023438 C 278.863281 68.484375 280.800781 69.996094 282.695312 71.554688 C 284.59375 73.109375 286.453125 74.714844 288.273438 76.363281 C 290.09375 78.011719 291.871094 79.703125 293.605469 81.441406 C 295.34375 83.175781 297.035156 84.953125 298.683594 86.773438 C 300.332031 88.59375 301.933594 90.453125 303.492188 92.347656 C 305.050781 94.246094 306.558594 96.183594 308.023438 98.15625 C 309.484375 100.125 310.898438 102.132812 312.261719 104.175781 C 313.628906 106.214844 314.941406 108.289062 316.203125 110.394531 C 317.464844 112.5 318.675781 114.636719 319.832031 116.804688 C 320.988281 118.96875 322.09375 121.160156 323.144531 123.378906 C 324.191406 125.597656 325.1875 127.84375 326.125 130.113281 C 327.066406 132.378906 327.949219 134.671875 328.777344 136.980469 C 329.605469 139.292969 330.375 141.625 331.085938 143.972656 C 331.800781 146.324219 332.453125 148.6875 333.050781 151.070312 C 333.648438 153.453125 334.183594 155.847656 334.664062 158.253906 C 335.144531 160.664062 335.5625 163.082031 335.921875 165.511719 C 336.28125 167.9375 336.582031 170.375 336.824219 172.820312 C 337.066406 175.261719 337.246094 177.710938 337.367188 180.160156 C 337.488281 182.613281 337.546875 185.066406 337.546875 187.523438 C 337.546875 189.980469 337.488281 192.433594 337.367188 194.882812 C 337.246094 197.335938 337.066406 199.785156 336.824219 202.226562 C 336.582031 204.671875 336.28125 207.109375 335.921875 209.535156 C 335.5625 211.964844 335.144531 214.382812 334.664062 216.792969 C 334.183594 219.199219 333.648438 221.59375 333.050781 223.976562 C 332.453125 226.359375 331.800781 228.722656 331.085938 231.074219 C 330.375 233.421875 329.605469 235.753906 328.777344 238.066406 C 327.949219 240.375 327.066406 242.667969 326.125 244.933594 C 325.1875 247.203125 324.191406 249.445312 323.144531 251.667969 C 322.09375 253.886719 320.988281 256.078125 319.832031 258.242188 C 318.675781 260.410156 317.464844 262.542969 316.203125 264.652344 C 314.941406 266.757812 313.628906 268.832031 312.261719 270.871094 C 310.898438 272.914062 309.484375 274.921875 308.023438 276.890625 C 306.5625 278.863281 305.050781 280.800781 303.492188 282.695312 C 301.933594 284.59375 300.332031 286.453125 298.683594 288.273438 C 297.035156 290.09375 295.34375 291.871094 293.605469 293.605469 C 291.871094 295.34375 290.09375 297.035156 288.273438 298.683594 C 286.453125 300.332031 284.59375 301.933594 282.695312 303.492188 C 280.800781 305.050781 278.863281 306.558594 276.890625 308.023438 C 274.921875 309.484375 272.914062 310.898438 270.871094 312.261719 C 268.832031 313.628906 266.757812 314.941406 264.652344 316.203125 C 262.542969 317.464844 260.410156 318.675781 258.242188 319.832031 C 256.078125 320.988281 253.886719 322.09375 251.667969 323.144531 C 249.445312 324.191406 247.203125 325.1875 244.933594 326.125 C 242.667969 327.066406 240.375 327.949219 238.066406 328.777344 C 235.753906 329.605469 233.421875 330.375 231.074219 331.085938 C 228.722656 331.800781 226.359375 332.453125 223.976562 333.050781 C 221.59375 333.648438 219.199219 334.183594 216.792969 334.664062 C 214.382812 335.144531 211.964844 335.5625 209.535156 335.921875 C 207.109375 336.28125 204.671875 336.582031 202.226562 336.824219 C 199.785156 337.066406 197.335938 337.246094 194.882812 337.367188 C 192.433594 337.488281 189.980469 337.546875 187.523438 337.546875 C 185.066406 337.546875 182.613281 337.488281 180.160156 337.367188 C 177.710938 337.246094 175.261719 337.066406 172.820312 336.824219 C 170.375 336.582031 167.9375 336.28125 165.511719 335.921875 C 163.082031 335.5625 160.664062 335.144531 158.253906 334.664062 C 155.847656 334.183594 153.453125 333.648438 151.070312 333.050781 C 148.6875 332.453125 146.324219 331.800781 143.972656 331.085938 C 141.625 330.375 139.292969 329.605469 136.980469 328.777344 C 134.671875 327.949219 132.378906 327.066406 130.113281 326.125 C 127.84375 325.1875 125.597656 324.191406 123.378906 323.144531 C 121.160156 322.09375 118.96875 320.988281 116.804688 319.832031 C 114.636719 318.675781 112.5 317.464844 110.394531 316.203125 C 108.289062 314.941406 106.214844 313.628906 104.175781 312.261719 C 102.132812 310.898438 100.125 309.484375 98.15625 308.023438 C 96.183594 306.5625 94.246094 305.050781 92.347656 303.492188 C 90.453125 301.933594 88.59375 300.332031 86.773438 298.683594 C 84.953125 297.035156 83.175781 295.34375 81.441406 293.605469 C 79.703125 291.871094 78.011719 290.09375 76.363281 288.273438 C 74.714844 286.453125 73.109375 284.59375 71.554688 282.695312 C 69.996094 280.800781 68.484375 278.863281 67.023438 276.890625 C 65.5625 274.921875 64.148438 272.914062 62.785156 270.871094 C 61.417969 268.832031 60.105469 266.757812 58.84375 264.652344 C 57.582031 262.542969 56.371094 260.410156 55.214844 258.242188 C 54.058594 256.078125 52.953125 253.886719 51.902344 251.667969 C 50.855469 249.445312 49.859375 247.203125 48.917969 244.933594 C 47.980469 242.667969 47.097656 240.375 46.269531 238.066406 C 45.441406 235.753906 44.671875 233.421875 43.960938 231.074219 C 43.246094 228.722656 42.59375 226.359375 41.996094 223.976562 C 41.398438 221.59375 40.863281 219.199219 40.382812 216.792969 C 39.902344 214.382812 39.484375 211.964844 39.125 209.535156 C 38.761719 207.109375 38.464844 204.671875 38.222656 202.226562 C 37.980469 199.785156 37.800781 197.335938 37.679688 194.882812 C 37.558594 192.433594 37.5 189.980469 37.5 187.523438 C 37.5 185.066406 37.558594 182.613281 37.679688 180.160156 C 37.800781 177.710938 37.980469 175.261719 38.222656 172.820312 C 38.464844 170.375 38.761719 167.9375 39.125 165.511719 C 39.484375 163.082031 39.902344 160.664062 40.382812 158.253906 C 40.863281 155.847656 41.398438 153.453125 41.996094 151.070312 C 42.59375 148.6875 43.246094 146.324219 43.960938 143.972656 C 44.671875 141.625 45.441406 139.292969 46.269531 136.980469 C 47.097656 134.671875 47.980469 132.378906 48.917969 130.113281 C 49.859375 127.84375 50.855469 125.597656 51.902344 123.378906 C 52.953125 121.160156 54.058594 118.96875 55.214844 116.804688 C 56.371094 114.636719 57.582031 112.5 58.84375 110.394531 C 60.105469 108.289062 61.417969 106.214844 62.785156 104.175781 C 64.148438 102.132812 65.5625 100.125 67.023438 98.15625 C 68.484375 96.183594 69.996094 94.246094 71.554688 92.347656 C 73.109375 90.453125 74.714844 88.59375 76.363281 86.773438 C 78.011719 84.953125 79.703125 83.175781 81.441406 81.441406 C 83.175781 79.703125 84.953125 78.011719 86.773438 76.363281 C 88.59375 74.714844 90.453125 73.109375 92.347656 71.554688 C 94.246094 69.996094 96.183594 68.484375 98.15625 67.023438 C 100.125 65.5625 102.132812 64.148438 104.175781 62.785156 C 106.214844 61.417969 108.289062 60.105469 110.394531 58.84375 C 112.5 57.582031 114.636719 56.371094 116.804688 55.214844 C 118.96875 54.058594 121.160156 52.953125 123.378906 51.902344 C 125.597656 50.855469 127.84375 49.859375 130.113281 48.917969 C 132.378906 47.980469 134.671875 47.097656 136.980469 46.269531 C 139.292969 45.441406 141.625 44.671875 143.972656 43.960938 C 146.324219 43.246094 148.6875 42.59375 151.070312 41.996094 C 153.453125 41.398438 155.847656 40.863281 158.253906 40.382812 C 160.664062 39.902344 163.082031 39.484375 165.511719 39.125 C 167.9375 38.761719 170.375 38.464844 172.820312 38.222656 C 175.261719 37.980469 177.710938 37.800781 180.160156 37.679688 C 182.613281 37.558594 185.066406 37.5 187.523438 37.5 Z M 187.523438 37.5 " fill-opacity="1" fill-rule="nonzero"/></g><path fill="#ffffff" d="M 239.410156 172.683594 L 239.167969 172.683594 L 239.167969 148.421875 C 239.167969 120.019531 216.128906 96.980469 187.722656 96.980469 C 159.320312 96.980469 136.277344 120.019531 136.277344 148.421875 L 136.277344 172.683594 L 136.035156 172.683594 C 129.574219 172.683594 124.332031 177.925781 124.332031 184.386719 L 124.332031 266.675781 C 124.332031 273.136719 129.574219 278.375 136.035156 278.375 L 239.289062 278.375 C 245.75 278.375 250.992188 273.136719 250.992188 266.675781 L 250.992188 184.507812 C 251.113281 178.046875 245.871094 172.683594 239.410156 172.683594 Z M 194.308594 227.296875 L 194.308594 248.875 C 194.308594 252.53125 191.378906 255.460938 187.722656 255.460938 C 184.066406 255.460938 181.140625 252.53125 181.140625 248.875 L 181.140625 227.296875 C 176.019531 224.859375 172.484375 219.617188 172.484375 213.644531 C 172.484375 205.234375 179.3125 198.527344 187.601562 198.527344 C 195.890625 198.527344 202.71875 205.355469 202.71875 213.644531 C 202.960938 219.617188 199.425781 224.859375 194.308594 227.296875 Z M 221.734375 172.683594 L 153.710938 172.683594 L 153.710938 148.421875 C 153.710938 129.648438 168.949219 114.410156 187.722656 114.410156 C 206.496094 114.410156 221.734375 129.648438 221.734375 148.421875 Z M 221.734375 172.683594 " fill-opacity="1" fill-rule="nonzero"/></svg>